<?xml version="1.0" encoding="UTF-8"?>
<svg version="1.1" xmlns="http://www.w3.org/2000/svg" width="40" height="32">
<path d="M0 0 C0.99386719 0.00902344 1.98773438 0.01804688 3.01171875 0.02734375 C4.15060547 0.04474609 4.15060547 0.04474609 5.3125 0.0625 C5.3125 0.7225 5.3125 1.3825 5.3125 2.0625 C6.3025 1.4025 7.2925 0.7425 8.3125 0.0625 C10.50390625 0.234375 10.50390625 0.234375 12.875 0.8125 C13.66003906 0.99296875 14.44507812 1.1734375 15.25390625 1.359375 C17.3125 2.0625 17.3125 2.0625 19.3125 4.0625 C19.3125 5.0525 19.3125 6.0425 19.3125 7.0625 C21.6225 7.0625 23.9325 7.0625 26.3125 7.0625 C25.630089 15.84854159 25.630089 15.84854159 22.57421875 18.6640625 C21.18633645 19.47431394 19.77489497 20.24543409 18.34375 20.9765625 C15.48316139 22.50587718 13.52580358 24.72272193 11.3125 27.0625 C6.80089845 30.07023437 2.59138147 29.84510341 -2.6875 29.0625 C-6.00499712 27.74035307 -7.76816267 26.06146457 -9.6875 23.0625 C-12.0204064 17.12608639 -14.40692849 10.52575272 -13.6875 4.0625 C-9.27080619 0.72013712 -5.43469869 -0.06393763 0 0 Z M-2.6875 9.0625 C-2.3575 10.7125 -2.0275 12.3625 -1.6875 14.0625 C-0.6975 13.4025 0.2925 12.7425 1.3125 12.0625 C1.3125 11.0725 1.3125 10.0825 1.3125 9.0625 C-0.0075 9.0625 -1.3275 9.0625 -2.6875 9.0625 Z M-9.6875 10.0625 C-9.6875 10.7225 -9.6875 11.3825 -9.6875 12.0625 C-9.0275 11.7325 -8.3675 11.4025 -7.6875 11.0625 C-8.3475 10.7325 -9.0075 10.4025 -9.6875 10.0625 Z M4.3125 10.0625 C4.3125 10.7225 4.3125 11.3825 4.3125 12.0625 C4.9725 12.0625 5.6325 12.0625 6.3125 12.0625 C6.6425 12.7225 6.9725 13.3825 7.3125 14.0625 C7.6425 12.7425 7.9725 11.4225 8.3125 10.0625 C6.9925 10.0625 5.6725 10.0625 4.3125 10.0625 Z M18.3125 10.0625 C17.9825 12.3725 17.6525 14.6825 17.3125 17.0625 C19.34491727 16.42270151 19.34491727 16.42270151 21.3125 15.0625 C22.12421228 12.50730079 22.12421228 12.50730079 22.3125 10.0625 C20.9925 10.0625 19.6725 10.0625 18.3125 10.0625 Z M14.3125 11.0625 C15.3125 13.0625 15.3125 13.0625 15.3125 13.0625 Z M-5.6875 13.0625 C-5.3575 14.3825 -5.0275 15.7025 -4.6875 17.0625 C-4.3575 16.4025 -4.0275 15.7425 -3.6875 15.0625 C-4.3475 14.4025 -5.0075 13.7425 -5.6875 13.0625 Z M10.3125 13.0625 C11.3125 17.0625 11.3125 17.0625 11.3125 17.0625 Z M12.3125 19.0625 C11.9825 19.7225 11.6525 20.3825 11.3125 21.0625 C11.9725 21.0625 12.6325 21.0625 13.3125 21.0625 C12.9825 20.4025 12.6525 19.7425 12.3125 19.0625 Z M-6.6875 20.0625 C-5.6875 22.0625 -5.6875 22.0625 -5.6875 22.0625 Z M1.3125 20.0625 C1.9725 20.7225 2.6325 21.3825 3.3125 22.0625 C3.6425 21.4025 3.9725 20.7425 4.3125 20.0625 C3.3225 20.0625 2.3325 20.0625 1.3125 20.0625 Z M-2.6875 22.0625 C-3.0175 22.7225 -3.3475 23.3825 -3.6875 24.0625 C-2.6975 23.7325 -1.7075 23.4025 -0.6875 23.0625 C-1.3475 22.7325 -2.0075 22.4025 -2.6875 22.0625 Z M7.3125 22.0625 C6.9825 22.7225 6.6525 23.3825 6.3125 24.0625 C7.3025 23.7325 8.2925 23.4025 9.3125 23.0625 C8.6525 22.7325 7.9925 22.4025 7.3125 22.0625 Z " fill="#E26E1D" transform="translate(13.6875,1.9375)"/>
</svg>
